# xmcd
#
# Track frame offsets: 
#        150
#        14508
#        33057
#        52151
#        70506
#        84436
#        102664
#        122225
#        139565
#        161409
#
# Disc length: 2475 seconds
#
# Revision: 2
# Processed by: cddbd v1.5.2PL0 Copyright (c) Steve Scherf et al.
# Submitted via: ExactAudioCopy v1.3
#
DISCID=7e09a90a
DTITLE=Corneille - Sans Titre
DYEAR=2009
DGENRE=Variete Francaise
TTITLE0=Elle me ment
TTITLE1=En attendant...
TTITLE2=Sans nous
TTITLE3=Ma comedie
TTITLE4=Le parasite
TTITLE5=Pauvre cynique
TTITLE6=Voleuse de lendemain
TTITLE7=Star! Vite fait!
TTITLE8=Viellir avec toi
TTITLE9=Je me pardonne
EXTD=
EXTT0=
EXTT1=
EXTT2=
EXTT3=
EXTT4=
EXTT5=
EXTT6=
EXTT7=
EXTT8=
EXTT9=
PLAYORDER=
